<svg width="20" height="20" viewBox="0 0 20 20" fill="none" xmlns="http://www.w3.org/2000/svg">
<path fill-rule="evenodd" clip-rule="evenodd" d="M9.75 19.5C15.1348 19.5 19.5 15.1348 19.5 9.75C19.5 4.36522 15.1348 0 9.75 0C4.36522 0 0 4.36522 0 9.75C0 15.1348 4.36522 19.5 9.75 19.5ZM9.75 18C5.19365 18 1.5 14.3063 1.5 9.75C1.5 5.19365 5.19365 1.5 9.75 1.5C14.3063 1.5 18 5.19365 18 9.75C18 14.3063 14.3063 18 9.75 18ZM8.75 6.75V9H6.5C6.08579 9 5.75 9.33579 5.75 9.75C5.75 10.1642 6.08579 10.5 6.5 10.5H8.75V12.75C8.75 13.1642 9.08579 13.5 9.5 13.5C9.91421 13.5 10.25 13.1642 10.25 12.75V10.5H12.5C12.9142 10.5 13.25 10.1642 13.25 9.75C13.25 9.33579 12.9142 9 12.5 9H10.25V6.75C10.25 6.33579 9.91421 6 9.5 6C9.08579 6 8.75 6.33579 8.75 6.75Z" fill="black"/>
</svg>
