<svg width="16" height="16" viewBox="0 0 16 16" fill="none" xmlns="http://www.w3.org/2000/svg">
<path fill-rule="evenodd" clip-rule="evenodd" d="M8.00012 15.7143C12.2606 15.7143 15.7143 12.2606 15.7143 8.00011C15.7143 3.73966 12.2606 0.285889 8.00012 0.285889C3.73968 0.285889 0.285904 3.73966 0.285904 8.00011C0.285904 12.2606 3.73968 15.7143 8.00012 15.7143Z" fill="#F7B239"/>
<path fill-rule="evenodd" clip-rule="evenodd" d="M3.99722 8.55396H11.7743C11.7743 8.99046 11.7023 9.41021 11.5696 9.80211H4.20193C4.06925 9.41021 3.99722 8.99046 3.99722 8.55396Z" fill="white"/>
<path fill-rule="evenodd" clip-rule="evenodd" d="M4.20193 9.802H11.5696C11.3081 10.5744 10.8106 11.2373 10.1628 11.7059C9.89065 11.2473 9.39047 10.94 8.81825 10.94C8.46865 10.94 8.14612 11.0547 7.88575 11.2488C7.62537 11.0548 7.30247 10.94 6.95287 10.94C6.38103 10.94 5.88047 11.2473 5.60865 11.7059C4.96097 11.2373 4.46347 10.5744 4.20193 9.802Z" fill="#A81004"/>
<path fill-rule="evenodd" clip-rule="evenodd" d="M8.81825 10.9399C9.39047 10.9399 9.89066 11.2472 10.1628 11.7058C9.52275 12.1694 8.73591 12.4424 7.88575 12.4424C7.0356 12.4424 6.24875 12.1694 5.60866 11.7058C5.88047 11.2472 6.38103 10.9399 6.95288 10.9399C7.30247 10.9399 7.62538 11.0547 7.88575 11.2488C8.14616 11.0547 8.46866 10.9399 8.81825 10.9399Z" fill="#F95428"/>
<path fill-rule="evenodd" clip-rule="evenodd" d="M0 7.99997C0 3.58878 3.58878 0 8.00003 0C12.4112 0 16 3.58878 16 7.99997C16 12.4112 12.4112 16 8.00003 16C3.58878 16 0 12.4112 0 7.99997ZM0.571844 7.99997C0.571844 12.0959 3.90412 15.4282 8.00003 15.4282C12.0959 15.4282 15.4282 12.0959 15.4282 7.99997C15.4282 3.90409 12.0959 0.571844 8.00003 0.571844C3.90409 0.571844 0.571844 3.90409 0.571844 7.99997Z" fill="#202841"/>
<path fill-rule="evenodd" clip-rule="evenodd" d="M4.58516 7.45877C5.16847 7.45877 5.64303 6.98421 5.64303 6.40089C5.64303 5.81758 5.16847 5.34302 4.58516 5.34302C4.00185 5.34302 3.52728 5.81758 3.52728 6.40089C3.52728 6.98421 4.00181 7.45877 4.58516 7.45877Z" fill="#202841"/>
<path fill-rule="evenodd" clip-rule="evenodd" d="M11.4149 5.34302C10.8316 5.34302 10.357 5.81758 10.357 6.40089C10.357 6.98421 10.8316 7.45877 11.4149 7.45877C11.9982 7.45877 12.4728 6.98421 12.4728 6.40089C12.4728 5.81758 11.9982 5.34302 11.4149 5.34302Z" fill="#202841"/>
<path fill-rule="evenodd" clip-rule="evenodd" d="M3.99722 8.26782H11.7743C11.9322 8.26782 12.0602 8.39585 12.0602 8.55385C12.0602 9.01201 11.9862 9.46282 11.8404 9.8937C11.5613 10.7181 11.0391 11.4249 10.3304 11.9375C9.61616 12.4548 8.77075 12.7283 7.88575 12.7283C7.00078 12.7283 6.15534 12.4548 5.44097 11.9374C4.73244 11.4249 4.21028 10.7181 3.93109 9.89363C3.78525 9.46273 3.71128 9.01195 3.71128 8.55376C3.71128 8.39585 3.83931 8.26782 3.99722 8.26782ZM11.3582 9.51598C11.4193 9.29513 11.4592 9.06898 11.4772 8.83967H4.29428C4.31228 9.06901 4.35225 9.29513 4.41331 9.51598H11.3582ZM6.01769 11.6346C6.25672 11.3781 6.59578 11.2258 6.95284 11.2258C7.23003 11.2258 7.49353 11.313 7.71487 11.4779C7.81625 11.5535 7.95522 11.5535 8.05656 11.4779C8.27787 11.313 8.54125 11.2258 8.81819 11.2258C9.17509 11.2258 9.51425 11.378 9.75356 11.6347C9.19194 11.9768 8.55187 12.1564 7.88569 12.1564C7.2195 12.1564 6.57944 11.9768 6.01769 11.6346ZM8.81822 10.6539C9.35897 10.6539 9.87137 10.8952 10.2194 11.2984C10.614 10.9636 10.9283 10.5528 11.1466 10.0878H4.62487C4.84316 10.5527 5.15744 10.9635 5.55191 11.2982C5.89944 10.8953 6.41184 10.6539 6.95284 10.6539C7.28506 10.6539 7.60381 10.7405 7.88572 10.906C8.16762 10.7406 8.48625 10.6539 8.81822 10.6539Z" fill="#202841"/>
<path fill-rule="evenodd" clip-rule="evenodd" d="M4.7025 6.54258C4.86042 6.54258 4.98844 6.41456 4.98844 6.25664C4.98844 6.09872 4.86042 5.9707 4.7025 5.9707C4.54458 5.9707 4.41656 6.09872 4.41656 6.25664C4.41656 6.41456 4.54458 6.54258 4.7025 6.54258Z" fill="white"/>
<path fill-rule="evenodd" clip-rule="evenodd" d="M11.5265 6.54258C11.6844 6.54258 11.8125 6.41456 11.8125 6.25664C11.8125 6.09872 11.6844 5.9707 11.5265 5.9707C11.3686 5.9707 11.2406 6.09872 11.2406 6.25664C11.2406 6.41456 11.3686 6.54258 11.5265 6.54258Z" fill="white"/>
</svg>
